<svg xmlns="http://www.w3.org/2000/svg" viewBox="0 0 800 72">
<rect width="800" height="72" fill="#2d3436"/>
<rect x="60" y="8" width="32" height="32" fill="#fdcb6e" opacity="0.3"/><rect x="62" y="10" width="28" height="28" fill="#ffeaa7" opacity="0.4"/><rect x="75" y="12" width="2" height="14" fill="#2d3436" opacity="0.6"/><rect x="76" y="24" width="10.666666666666666" height="2" fill="#d63031" opacity="0.6"/><rect x="200" y="16" width="24" height="24" fill="#fdcb6e" opacity="0.3"/><rect x="202" y="18" width="20" height="20" fill="#ffeaa7" opacity="0.4"/><rect x="211" y="20" width="2" height="10" fill="#2d3436" opacity="0.6"/><rect x="212" y="28" width="8" height="2" fill="#d63031" opacity="0.6"/><rect x="340" y="4" width="28" height="28" fill="#fdcb6e" opacity="0.3"/><rect x="342" y="6" width="24" height="24" fill="#ffeaa7" opacity="0.4"/><rect x="353" y="8" width="2" height="12" fill="#2d3436" opacity="0.6"/><rect x="354" y="18" width="9.333333333333334" height="2" fill="#d63031" opacity="0.6"/><rect x="500" y="12" width="20" height="20" fill="#fdcb6e" opacity="0.3"/><rect x="502" y="14" width="16" height="16" fill="#ffeaa7" opacity="0.4"/><rect x="509" y="16" width="2" height="8" fill="#2d3436" opacity="0.6"/><rect x="510" y="22" width="6.666666666666667" height="2" fill="#d63031" opacity="0.6"/><rect x="640" y="8" width="32" height="32" fill="#fdcb6e" opacity="0.3"/><rect x="642" y="10" width="28" height="28" fill="#ffeaa7" opacity="0.4"/><rect x="655" y="12" width="2" height="14" fill="#2d3436" opacity="0.6"/><rect x="656" y="24" width="10.666666666666666" height="2" fill="#d63031" opacity="0.6"/><rect x="760" y="20" width="16" height="16" fill="#fdcb6e" opacity="0.3"/><rect x="762" y="22" width="12" height="12" fill="#ffeaa7" opacity="0.4"/><rect x="767" y="24" width="2" height="6" fill="#2d3436" opacity="0.6"/><rect x="768" y="28" width="5.333333333333333" height="2" fill="#d63031" opacity="0.6"/><rect x="158" y="36" width="3" height="3" fill="#6c5ce7" opacity="0.3"/><rect x="158.2533561490968" y="41.646424733950354" width="3" height="3" fill="#6c5ce7" opacity="0.3"/><rect x="154.34829305372008" y="47.18446903160672" width="3" height="3" fill="#6c5ce7" opacity="0.3"/><rect x="146.81917067429677" y="49.633866832294736" width="3" height="3" fill="#6c5ce7" opacity="0.3"/><rect x="138.20170055134008" y="46.80741088881842" width="3" height="3" fill="#6c5ce7" opacity="0.3"/><rect x="132.18013506119198" y="38.54016014507761" width="3" height="3" fill="#6c5ce7" opacity="0.3"/><rect x="132.06483167331706" y="27.14959113410296" width="3" height="3" fill="#6c5ce7" opacity="0.3"/><rect x="139.21426193050462" y="16.82533300690106" width="3" height="3" fill="#6c5ce7" opacity="0.3"/><rect x="152.09997560254672" y="12.092049387939824" width="3" height="3" fill="#6c5ce7" opacity="0.3"/><rect x="166.5020147745085" y="15.90812332354432" width="3" height="3" fill="#6c5ce7" opacity="0.3"/><rect x="176.88476802621025" y="28.176366050430076" width="3" height="3" fill="#6c5ce7" opacity="0.3"/><rect x="178.50697775875588" y="45.34624090540134" width="3" height="3" fill="#6c5ce7" opacity="0.3"/><rect x="438" y="36" width="3" height="3" fill="#6c5ce7" opacity="0.3"/><rect x="438.25335614909676" y="41.646424733950354" width="3" height="3" fill="#6c5ce7" opacity="0.3"/><rect x="434.34829305372006" y="47.18446903160672" width="3" height="3" fill="#6c5ce7" opacity="0.3"/><rect x="426.8191706742968" y="49.633866832294736" width="3" height="3" fill="#6c5ce7" opacity="0.3"/><rect x="418.2017005513401" y="46.80741088881842" width="3" height="3" fill="#6c5ce7" opacity="0.3"/><rect x="412.180135061192" y="38.54016014507761" width="3" height="3" fill="#6c5ce7" opacity="0.3"/><rect x="412.06483167331703" y="27.14959113410296" width="3" height="3" fill="#6c5ce7" opacity="0.3"/><rect x="419.2142619305046" y="16.82533300690106" width="3" height="3" fill="#6c5ce7" opacity="0.3"/><rect x="432.0999756025467" y="12.092049387939824" width="3" height="3" fill="#6c5ce7" opacity="0.3"/><rect x="446.5020147745085" y="15.90812332354432" width="3" height="3" fill="#6c5ce7" opacity="0.3"/><rect x="456.8847680262102" y="28.176366050430076" width="3" height="3" fill="#6c5ce7" opacity="0.3"/><rect x="458.5069777587559" y="45.34624090540134" width="3" height="3" fill="#6c5ce7" opacity="0.3"/><rect x="718" y="36" width="3" height="3" fill="#6c5ce7" opacity="0.3"/><rect x="718.2533561490968" y="41.646424733950354" width="3" height="3" fill="#6c5ce7" opacity="0.3"/><rect x="714.3482930537201" y="47.18446903160672" width="3" height="3" fill="#6c5ce7" opacity="0.3"/><rect x="706.8191706742967" y="49.633866832294736" width="3" height="3" fill="#6c5ce7" opacity="0.3"/><rect x="698.2017005513401" y="46.80741088881842" width="3" height="3" fill="#6c5ce7" opacity="0.3"/><rect x="692.180135061192" y="38.54016014507761" width="3" height="3" fill="#6c5ce7" opacity="0.3"/><rect x="692.064831673317" y="27.14959113410296" width="3" height="3" fill="#6c5ce7" opacity="0.3"/><rect x="699.2142619305046" y="16.82533300690106" width="3" height="3" fill="#6c5ce7" opacity="0.3"/><rect x="712.0999756025467" y="12.092049387939824" width="3" height="3" fill="#6c5ce7" opacity="0.3"/><rect x="726.5020147745084" y="15.90812332354432" width="3" height="3" fill="#6c5ce7" opacity="0.3"/><rect x="736.8847680262103" y="28.176366050430076" width="3" height="3" fill="#6c5ce7" opacity="0.3"/><rect x="738.5069777587559" y="45.34624090540134" width="3" height="3" fill="#6c5ce7" opacity="0.3"/>
</svg>