<svg xmlns="http://www.w3.org/2000/svg" viewBox="0 0 800 72">
<rect width="800" height="72" fill="#1a1a2e"/>
<rect x="0" y="36" width="3" height="2" fill="#a29bfe" opacity="0.3"/><rect x="0" y="46.91156912190818" width="2" height="2" fill="#fd79a8" opacity="0.2"/><rect x="4" y="37.91539531662271" width="3" height="2" fill="#a29bfe" opacity="0.3"/><rect x="4" y="45.701956845835085" width="2" height="2" fill="#fd79a8" opacity="0.2"/><rect x="8" y="39.803242022834155" width="3" height="2" fill="#a29bfe" opacity="0.3"/><rect x="8" y="44.10555816661381" width="2" height="2" fill="#fd79a8" opacity="0.2"/><rect x="12" y="41.63638773240144" width="3" height="2" fill="#a29bfe" opacity="0.3"/><rect x="12" y="42.18601646185757" width="2" height="2" fill="#fd79a8" opacity="0.2"/><rect x="16" y="43.38846680866372" width="3" height="2" fill="#a29bfe" opacity="0.3"/><rect x="16" y="40.01985780187086" width="2" height="2" fill="#fd79a8" opacity="0.2"/><rect x="20" y="45.034279574320564" width="3" height="2" fill="#a29bfe" opacity="0.3"/><rect x="20" y="37.693440096718405" width="2" height="2" fill="#fd79a8" opacity="0.2"/><rect x="24" y="46.55015475154357" width="3" height="2" fill="#a29bfe" opacity="0.3"/><rect x="24" y="35.299510278869036" width="2" height="2" fill="#fd79a8" opacity="0.2"/><rect x="28" y="47.91428991953375" width="3" height="2" fill="#a29bfe" opacity="0.3"/><rect x="28" y="32.93350677567802" width="2" height="2" fill="#fd79a8" opacity="0.2"/><rect x="32" y="49.10706509281597" width="3" height="2" fill="#a29bfe" opacity="0.3"/><rect x="32" y="30.68975468046177" width="2" height="2" fill="#fd79a8" opacity="0.2"/><rect x="36" y="50.11132491015916" width="3" height="2" fill="#a29bfe" opacity="0.3"/><rect x="36" y="28.657705308687373" width="2" height="2" fill="#fd79a8" opacity="0.2"/><rect x="40" y="50.91262537547562" width="3" height="2" fill="#a29bfe" opacity="0.3"/><rect x="40" y="26.918370056304862" width="2" height="2" fill="#fd79a8" opacity="0.2"/><rect x="44" y="51.499441601892244" width="3" height="2" fill="#a29bfe" opacity="0.3"/><rect x="44" y="25.54109073103694" width="2" height="2" fill="#fd79a8" opacity="0.2"/><rect x="48" y="51.86333357106698" width="3" height="2" fill="#a29bfe" opacity="0.3"/><rect x="48" y="24.580775113325807" width="2" height="2" fill="#fd79a8" opacity="0.2"/><rect x="52" y="51.99906752367946" width="3" height="2" fill="#a29bfe" opacity="0.3"/><rect x="52" y="24.075707956398425" width="2" height="2" fill="#fd79a8" opacity="0.2"/><rect x="56" y="51.90469123516922" width="3" height="2" fill="#a29bfe" opacity="0.3"/><rect x="56" y="24.046024693969912" width="2" height="2" fill="#fd79a8" opacity="0.2"/><rect x="60" y="51.58156209405112" width="3" height="2" fill="#a29bfe" opacity="0.3"/><rect x="60" y="24.49290870404234" width="2" height="2" fill="#fd79a8" opacity="0.2"/><rect x="64" y="51.0343275789652" width="3" height="2" fill="#a29bfe" opacity="0.3"/><rect x="64" y="25.398544131358165" width="2" height="2" fill="#fd79a8" opacity="0.2"/><rect x="68" y="50.270858415254075" width="3" height="2" fill="#a29bfe" opacity="0.3"/><rect x="68" y="26.726826149328154" width="2" height="2" fill="#fd79a8" opacity="0.2"/><rect x="72" y="49.30213537245893" width="3" height="2" fill="#a29bfe" opacity="0.3"/><rect x="72" y="28.42480034553214" width="2" height="2" fill="#fd79a8" opacity="0.2"/><rect x="76" y="48.14209133089475" width="3" height="2" fill="#a29bfe" opacity="0.3"/><rect x="76" y="30.42477384703492" width="2" height="2" fill="#fd79a8" opacity="0.2"/><rect x="80" y="46.80741088881842" width="3" height="2" fill="#a29bfe" opacity="0.3"/><rect x="80" y="32.64701402161289" width="2" height="2" fill="#fd79a8" opacity="0.2"/><rect x="84" y="45.31729039238531" width="3" height="2" fill="#a29bfe" opacity="0.3"/><rect x="84" y="35.00292716619004" width="2" height="2" fill="#fd79a8" opacity="0.2"/><rect x="88" y="43.69316183981838" width="3" height="2" fill="#a29bfe" opacity="0.3"/><rect x="88" y="37.39859045820592" width="2" height="2" fill="#fd79a8" opacity="0.2"/><rect x="92" y="41.95838463080089" width="3" height="2" fill="#a29bfe" opacity="0.3"/><rect x="92" y="39.73849636216055" width="2" height="2" fill="#fd79a8" opacity="0.2"/><rect x="96" y="40.13790959457777" width="3" height="2" fill="#a29bfe" opacity="0.3"/><rect x="96" y="41.92936021366331" width="2" height="2" fill="#fd79a8" opacity="0.2"/><rect x="100" y="38.25792012895788" width="3" height="2" fill="#a29bfe" opacity="0.3"/><rect x="100" y="43.88383918462547" width="2" height="2" fill="#fd79a8" opacity="0.2"/><rect x="104" y="36.34545561161754" width="3" height="2" fill="#a29bfe" opacity="0.3"/><rect x="104" y="45.52401436618984" width="2" height="2" fill="#fd79a8" opacity="0.2"/><rect x="108" y="34.42802250007827" width="3" height="2" fill="#a29bfe" opacity="0.3"/><rect x="108" y="46.78449714973952" width="2" height="2" fill="#fd79a8" opacity="0.2"/><rect x="112" y="32.53319871380192" width="3" height="2" fill="#a29bfe" opacity="0.3"/><rect x="112" y="47.61503606437784" width="2" height="2" fill="#fd79a8" opacity="0.2"/><rect x="116" y="30.688236988468255" width="3" height="2" fill="#a29bfe" opacity="0.3"/><rect x="116" y="47.98252014449526" width="2" height="2" fill="#fd79a8" opacity="0.2"/><rect x="120" y="28.91967290728237" width="3" height="2" fill="#a29bfe" opacity="0.3"/><rect x="120" y="47.87229895948058" width="2" height="2" fill="#fd79a8" opacity="0.2"/><rect x="124" y="27.252943246891412" width="3" height="2" fill="#a29bfe" opacity="0.3"/><rect x="124" y="47.28876668015728" width="2" height="2" fill="#fd79a8" opacity="0.2"/><rect x="128" y="25.712020127137457" width="3" height="2" fill="#a29bfe" opacity="0.3"/><rect x="128" y="46.25518689705937" width="2" height="2" fill="#fd79a8" opacity="0.2"/><rect x="132" y="24.31906622657121" width="3" height="2" fill="#a29bfe" opacity="0.3"/><rect x="132" y="44.81276517448934" width="2" height="2" fill="#fd79a8" opacity="0.2"/><rect x="136" y="23.094116022668153" width="3" height="2" fill="#a29bfe" opacity="0.3"/><rect x="136" y="43.019006314701144" width="2" height="2" fill="#fd79a8" opacity="0.2"/><rect x="140" y="22.05478764138259" width="3" height="2" fill="#a29bfe" opacity="0.3"/><rect x="140" y="40.94542182290108" width="2" height="2" fill="#fd79a8" opacity="0.2"/><rect x="144" y="21.21602946042899" width="3" height="2" fill="#a29bfe" opacity="0.3"/><rect x="144" y="38.67467896920297" width="2" height="2" fill="#fd79a8" opacity="0.2"/><rect x="148" y="20.589905110826937" width="3" height="2" fill="#a29bfe" opacity="0.3"/><rect x="148" y="36.297305105440294" width="2" height="2" fill="#fd79a8" opacity="0.2"/><rect x="152" y="20.18541996897391" width="3" height="2" fill="#a29bfe" opacity="0.3"/><rect x="152" y="33.90807862532422" width="2" height="2" fill="#fd79a8" opacity="0.2"/><rect x="156" y="20.008391634763456" width="3" height="2" fill="#a29bfe" opacity="0.3"/><rect x="156" y="31.60225044897686" width="2" height="2" fill="#fd79a8" opacity="0.2"/><rect x="160" y="20.06136625862655" width="3" height="2" fill="#a29bfe" opacity="0.3"/><rect x="160" y="29.471746669327562" width="2" height="2" fill="#fd79a8" opacity="0.2"/><rect x="164" y="20.343581920941784" width="3" height="2" fill="#a29bfe" opacity="0.3"/><rect x="164" y="27.601503748877477" width="2" height="2" fill="#fd79a8" opacity="0.2"/><rect x="168" y="20.850979590518257" width="3" height="2" fill="#a29bfe" opacity="0.3"/><rect x="168" y="26.066082370972154" width="2" height="2" fill="#fd79a8" opacity="0.2"/><rect x="172" y="21.576261504538323" width="3" height="2" fill="#a29bfe" opacity="0.3"/><rect x="172" y="24.92669494064632" width="2" height="2" fill="#fd79a8" opacity="0.2"/><rect x="176" y="22.508996130297326" width="3" height="2" fill="#a29bfe" opacity="0.3"/><rect x="176" y="24.2287652392021" width="2" height="2" fill="#fd79a8" opacity="0.2"/><rect x="180" y="23.6357681991042" width="3" height="2" fill="#a29bfe" opacity="0.3"/><rect x="180" y="24.00011752139156" width="2" height="2" fill="#fd79a8" opacity="0.2"/><rect x="184" y="24.94037165444597" width="3" height="2" fill="#a29bfe" opacity="0.3"/><rect x="184" y="24.249867250184195" width="2" height="2" fill="#fd79a8" opacity="0.2"/><rect x="188" y="26.4040427392953" width="3" height="2" fill="#a29bfe" opacity="0.3"/><rect x="188" y="24.96805769202389" width="2" height="2" fill="#fd79a8" opacity="0.2"/><rect x="192" y="28.00572987012956" width="3" height="2" fill="#a29bfe" opacity="0.3"/><rect x="192" y="26.126056860375506" width="2" height="2" fill="#fd79a8" opacity="0.2"/><rect x="196" y="29.72239641613674" width="3" height="2" fill="#a29bfe" opacity="0.3"/><rect x="196" y="27.67769898267453" width="2" height="2" fill="#fd79a8" opacity="0.2"/><rect x="200" y="31.529352028817186" width="3" height="2" fill="#a29bfe" opacity="0.3"/><rect x="200" y="29.56112498399478" width="2" height="2" fill="#fd79a8" opacity="0.2"/><rect x="204" y="33.400607756557534" width="3" height="2" fill="#a29bfe" opacity="0.3"/><rect x="204" y="31.701248613158075" width="2" height="2" fill="#fd79a8" opacity="0.2"/><rect x="208" y="35.30924983666034" width="3" height="2" fill="#a29bfe" opacity="0.3"/><rect x="208" y="34.012749894620285" width="2" height="2" fill="#fd79a8" opacity="0.2"/><rect x="212" y="37.22782678868029" width="3" height="2" fill="#a29bfe" opacity="0.3"/><rect x="212" y="36.40347656665366" width="2" height="2" fill="#fd79a8" opacity="0.2"/><rect x="216" y="39.12874424160869" width="3" height="2" fill="#a29bfe" opacity="0.3"/><rect x="216" y="38.778117901218465" width="2" height="2" fill="#fd79a8" opacity="0.2"/><rect x="220" y="40.98466181621404" width="3" height="2" fill="#a29bfe" opacity="0.3"/><rect x="220" y="41.04200444191969" width="2" height="2" fill="#fd79a8" opacity="0.2"/><rect x="224" y="42.76888635428795" width="3" height="2" fill="#a29bfe" opacity="0.3"/><rect x="224" y="43.1048821764867" width="2" height="2" fill="#fd79a8" opacity="0.2"/><rect x="228" y="44.45575583908689" width="3" height="2" fill="#a29bfe" opacity="0.3"/><rect x="228" y="44.88451067942938" width="2" height="2" fill="#fd79a8" opacity="0.2"/><rect x="232" y="46.021008485146496" width="3" height="2" fill="#a29bfe" opacity="0.3"/><rect x="232" y="46.30994177827796" width="2" height="2" fill="#fd79a8" opacity="0.2"/><rect x="236" y="47.44213168894973" width="3" height="2" fill="#a29bfe" opacity="0.3"/><rect x="236" y="47.32434803332926" width="2" height="2" fill="#fd79a8" opacity="0.2"/><rect x="240" y="48.698685821586444" width="3" height="2" fill="#a29bfe" opacity="0.3"/><rect x="240" y="47.887288268338445" width="2" height="2" fill="#fd79a8" opacity="0.2"/><rect x="244" y="49.77259820638242" width="3" height="2" fill="#a29bfe" opacity="0.3"/><rect x="244" y="47.97631983259634" width="2" height="2" fill="#fd79a8" opacity="0.2"/><rect x="248" y="50.64842305329743" width="3" height="2" fill="#a29bfe" opacity="0.3"/><rect x="248" y="47.58789331859133" width="2" height="2" fill="#fd79a8" opacity="0.2"/><rect x="252" y="51.313563611526675" width="3" height="2" fill="#a29bfe" opacity="0.3"/><rect x="252" y="46.73749406568604" width="2" height="2" fill="#fd79a8" opacity="0.2"/><rect x="256" y="51.75845334514497" width="3" height="2" fill="#a29bfe" opacity="0.3"/><rect x="256" y="45.4590248085038" width="2" height="2" fill="#fd79a8" opacity="0.2"/><rect x="260" y="51.97669352599368" width="3" height="2" fill="#a29bfe" opacity="0.3"/><rect x="260" y="43.803454081885405" width="2" height="2" fill="#fd79a8" opacity="0.2"/><rect x="264" y="51.96514526484919" width="3" height="2" fill="#a29bfe" opacity="0.3"/><rect x="264" y="41.83678426624558" width="2" height="2" fill="#fd79a8" opacity="0.2"/><rect x="268" y="51.723974657213795" width="3" height="2" fill="#a29bfe" opacity="0.3"/><rect x="268" y="39.637420280948426" width="2" height="2" fill="#fd79a8" opacity="0.2"/><rect x="272" y="51.25665039440919" width="3" height="2" fill="#a29bfe" opacity="0.3"/><rect x="272" y="37.29304382759331" width="2" height="2" fill="#fd79a8" opacity="0.2"/><rect x="276" y="50.56989387433168" width="3" height="2" fill="#a29bfe" opacity="0.3"/><rect x="276" y="34.89711779726782" width="2" height="2" fill="#fd79a8" opacity="0.2"/><rect x="280" y="49.673582529412485" width="3" height="2" fill="#a29bfe" opacity="0.3"/><rect x="280" y="32.54516020001922" width="2" height="2" fill="#fd79a8" opacity="0.2"/><rect x="284" y="48.580607762190866" width="3" height="2" fill="#a29bfe" opacity="0.3"/><rect x="284" y="30.330936163218368" width="2" height="2" fill="#fd79a8" opacity="0.2"/><rect x="288" y="47.30668953177405" width="3" height="2" fill="#a29bfe" opacity="0.3"/><rect x="288" y="28.34271981182463" width="2" height="2" fill="#fd79a8" opacity="0.2"/><rect x="292" y="45.870150257936714" width="3" height="2" fill="#a29bfe" opacity="0.3"/><rect x="292" y="26.65977505758842" width="2" height="2" fill="#fd79a8" opacity="0.2"/><rect x="296" y="44.29165129473563" width="3" height="2" fill="#a29bfe" opacity="0.3"/><rect x="296" y="25.349195597021946" width="2" height="2" fill="#fd79a8" opacity="0.2"/><rect x="300" y="42.593895763868105" width="3" height="2" fill="#a29bfe" opacity="0.3"/><rect x="300" y="24.46323009744532" width="2" height="2" fill="#fd79a8" opacity="0.2"/><rect x="304" y="40.80130202184136" width="3" height="2" fill="#a29bfe" opacity="0.3"/><rect x="304" y="24.03719920750084" width="2" height="2" fill="#fd79a8" opacity="0.2"/><rect x="308" y="38.93965245738533" width="3" height="2" fill="#a29bfe" opacity="0.3"/><rect x="308" y="24.088087434352403" width="2" height="2" fill="#fd79a8" opacity="0.2"/><rect x="312" y="37.035722670361054" width="3" height="2" fill="#a29bfe" opacity="0.3"/><rect x="312" y="24.613866024982514" width="2" height="2" fill="#fd79a8" opacity="0.2"/><rect x="316" y="35.11689636558281" width="3" height="2" fill="#a29bfe" opacity="0.3"/><rect x="316" y="25.593573846173022" width="2" height="2" fill="#fd79a8" opacity="0.2"/><rect x="320" y="33.21077150043232" width="3" height="2" fill="#a29bfe" opacity="0.3"/><rect x="320" y="26.98815303873989" width="2" height="2" fill="#fd79a8" opacity="0.2"/><rect x="324" y="31.344763350936173" width="3" height="2" fill="#a29bfe" opacity="0.3"/><rect x="324" y="28.74200613112459" width="2" height="2" fill="#fd79a8" opacity="0.2"/><rect x="328" y="29.545710205299685" width="3" height="2" fill="#a29bfe" opacity="0.3"/><rect x="328" y="30.785212535137276" width="2" height="2" fill="#fd79a8" opacity="0.2"/><rect x="332" y="27.839487356099955" width="3" height="2" fill="#a29bfe" opacity="0.3"/><rect x="332" y="33.03631605916055" width="2" height="2" fill="#fd79a8" opacity="0.2"/><rect x="336" y="26.250634942983027" width="3" height="2" fill="#a29bfe" opacity="0.3"/><rect x="336" y="35.40557230945959" width="2" height="2" fill="#fd79a8" opacity="0.2"/><rect x="340" y="24.80200499850332" width="3" height="2" fill="#a29bfe" opacity="0.3"/><rect x="340" y="37.79852651595543" width="2" height="2" fill="#fd79a8" opacity="0.2"/><rect x="344" y="23.514432773548293" width="3" height="2" fill="#a29bfe" opacity="0.3"/><rect x="344" y="40.11977914583875" width="2" height="2" fill="#fd79a8" opacity="0.2"/><rect x="348" y="22.406437069586183" width="3" height="2" fill="#a29bfe" opacity="0.3"/><rect x="348" y="42.2767891818924" width="2" height="2" fill="#fd79a8" opacity="0.2"/><rect x="352" y="21.493953887776044" width="3" height="2" fill="#a29bfe" opacity="0.3"/><rect x="352" y="44.18356344081763" width="2" height="2" fill="#fd79a8" opacity="0.2"/><rect x="356" y="20.79010722579312" width="3" height="2" fill="#a29bfe" opacity="0.3"/><rect x="356" y="45.76408485008527" width="2" height="2" fill="#fd79a8" opacity="0.2"/><rect x="360" y="20.30502031893614" width="3" height="2" fill="#a29bfe" opacity="0.3"/><rect x="360" y="46.95534300873153" width="2" height="2" fill="#fd79a8" opacity="0.2"/><rect x="364" y="20.045670040384557" width="3" height="2" fill="#a29bfe" opacity="0.3"/><rect x="364" y="47.709846213203704" width="2" height="2" fill="#fd79a8" opacity="0.2"/><rect x="368" y="20.015786554727313" width="3" height="2" fill="#a29bfe" opacity="0.3"/><rect x="368" y="47.99751480171203" width="2" height="2" fill="#fd79a8" opacity="0.2"/><rect x="372" y="20.21579966801903" width="3" height="2" fill="#a29bfe" opacity="0.3"/><rect x="372" y="47.80688033542339" width="2" height="2" fill="#fd79a8" opacity="0.2"/><rect x="376" y="20.64283264599635" width="3" height="2" fill="#a29bfe" opacity="0.3"/><rect x="376" y="47.14554280892688" width="2" height="2" fill="#fd79a8" opacity="0.2"/><rect x="380" y="21.29074358936519" width="3" height="2" fill="#a29bfe" opacity="0.3"/><rect x="380" y="46.03986766243267" width="2" height="2" fill="#fd79a8" opacity="0.2"/><rect x="384" y="22.150213771069474" width="3" height="2" fill="#a29bfe" opacity="0.3"/><rect x="384" y="44.53393467487176" width="2" height="2" fill="#fd79a8" opacity="0.2"/><rect x="388" y="23.208881665010452" width="3" height="2" fill="#a29bfe" opacity="0.3"/><rect x="388" y="42.687780642211905" width="2" height="2" fill="#fd79a8" opacity="0.2"/><rect x="392" y="24.45152073851784" width="3" height="2" fill="#a29bfe" opacity="0.3"/><rect x="392" y="40.57500589985928" width="2" height="2" fill="#fd79a8" opacity="0.2"/><rect x="396" y="25.860258451431996" width="3" height="2" fill="#a29bfe" opacity="0.3"/><rect x="396" y="38.279840109545255" width="2" height="2" fill="#fd79a8" opacity="0.2"/><rect x="400" y="27.414833311993043" width="3" height="2" fill="#a29bfe" opacity="0.3"/><rect x="400" y="35.89378428851516" width="2" height="2" fill="#fd79a8" opacity="0.2"/><rect x="404" y="29.092886292371492" width="3" height="2" fill="#a29bfe" opacity="0.3"/><rect x="404" y="33.511962952718854" width="2" height="2" fill="#fd79a8" opacity="0.2"/><rect x="408" y="30.87028241249059" width="3" height="2" fill="#a29bfe" opacity="0.3"/><rect x="408" y="31.229331802542767" width="2" height="2" fill="#fd79a8" opacity="0.2"/><rect x="412" y="32.72145786688687" width="3" height="2" fill="#a29bfe" opacity="0.3"/><rect x="412" y="29.136892138685234" width="2" height="2" fill="#fd79a8" opacity="0.2"/><rect x="416" y="34.619787701978495" width="3" height="2" fill="#a29bfe" opacity="0.3"/><rect x="416" y="27.31806292746906" width="2" height="2" fill="#fd79a8" opacity="0.2"/><rect x="420" y="36.53796875553819" width="3" height="2" fill="#a29bfe" opacity="0.3"/><rect x="420" y="25.84535514989795" width="2" height="2" fill="#fd79a8" opacity="0.2"/><rect x="424" y="38.44841235065724" width="3" height="2" fill="#a29bfe" opacity="0.3"/><rect x="424" y="24.777481017665515" width="2" height="2" fill="#fd79a8" opacity="0.2"/><rect x="428" y="40.32364109618939" width="3" height="2" fill="#a29bfe" opacity="0.3"/><rect x="428" y="24.15701330255221" width="2" height="2" fill="#fd79a8" opacity="0.2"/><rect x="432" y="42.13668408660173" width="3" height="2" fill="#a29bfe" opacity="0.3"/><rect x="432" y="24.00868809436047" width="2" height="2" fill="#fd79a8" opacity="0.2"/><rect x="436" y="43.86146481718103" width="3" height="2" fill="#a29bfe" opacity="0.3"/><rect x="436" y="24.33841865107364" width="2" height="2" fill="#fd79a8" opacity="0.2"/><rect x="440" y="45.47317623531557" width="3" height="2" fill="#a29bfe" opacity="0.3"/><rect x="440" y="25.133059655920515" width="2" height="2" fill="#fd79a8" opacity="0.2"/><rect x="444" y="46.948637533592816" width="3" height="2" fill="#a29bfe" opacity="0.3"/><rect x="444" y="26.36093127967257" width="2" height="2" fill="#fd79a8" opacity="0.2"/><rect x="448" y="48.26662755305386" width="3" height="2" fill="#a29bfe" opacity="0.3"/><rect x="448" y="27.973082155463743" width="2" height="2" fill="#fd79a8" opacity="0.2"/><rect x="452" y="49.408190001356886" width="3" height="2" fill="#a29bfe" opacity="0.3"/><rect x="452" y="29.905240915312536" width="2" height="2" fill="#fd79a8" opacity="0.2"/><rect x="456" y="50.35690609597932" width="3" height="2" fill="#a29bfe" opacity="0.3"/><rect x="456" y="32.080378486743335" width="2" height="2" fill="#fd79a8" opacity="0.2"/><rect x="460" y="51.099130711105666" width="3" height="2" fill="#a29bfe" opacity="0.3"/><rect x="460" y="34.411778998826726" width="2" height="2" fill="#fd79a8" opacity="0.2"/><rect x="464" y="51.62418863176476" width="3" height="2" fill="#a29bfe" opacity="0.3"/><rect x="464" y="36.80649687030574" width="2" height="2" fill="#fd79a8" opacity="0.2"/><rect x="468" y="51.92452809254604" width="3" height="2" fill="#a29bfe" opacity="0.3"/><rect x="468" y="39.16906225661367" width="2" height="2" fill="#fd79a8" opacity="0.2"/><rect x="472" y="51.99582939258965" width="3" height="2" fill="#a29bfe" opacity="0.3"/><rect x="472" y="41.405287131304675" width="2" height="2" fill="#fd79a8" opacity="0.2"/><rect x="476" y="51.837067024670176" width="3" height="2" fill="#a29bfe" opacity="0.3"/><rect x="476" y="43.42602026544047" width="2" height="2" fill="#fd79a8" opacity="0.2"/><rect x="480" y="51.45052442478845" width="3" height="2" fill="#a29bfe" opacity="0.3"/><rect x="480" y="45.150701405755235" width="2" height="2" fill="#fd79a8" opacity="0.2"/><rect x="484" y="50.841761130131935" width="3" height="2" fill="#a29bfe" opacity="0.3"/><rect x="484" y="46.510572957730695" width="2" height="2" fill="#fd79a8" opacity="0.2"/><rect x="488" y="50.019532817762006" width="3" height="2" fill="#a29bfe" opacity="0.3"/><rect x="488" y="47.451421133912376" width="2" height="2" fill="#fd79a8" opacity="0.2"/><rect x="492" y="48.99566537408967" width="3" height="2" fill="#a29bfe" opacity="0.3"/><rect x="492" y="47.93573728653406" width="2" height="2" fill="#fd79a8" opacity="0.2"/><rect x="496" y="47.78488480636459" width="3" height="2" fill="#a29bfe" opacity="0.3"/><rect x="496" y="47.94421325893871" width="2" height="2" fill="#fd79a8" opacity="0.2"/><rect x="500" y="46.40460544251387" width="3" height="2" fill="#a29bfe" opacity="0.3"/><rect x="500" y="47.476511140854036" width="2" height="2" fill="#fd79a8" opacity="0.2"/><rect x="504" y="44.87467946559525" width="3" height="2" fill="#a29bfe" opacity="0.3"/><rect x="504" y="46.55127673980867" width="2" height="2" fill="#fd79a8" opacity="0.2"/><rect x="508" y="43.217111385241985" width="3" height="2" fill="#a29bfe" opacity="0.3"/><rect x="508" y="45.20539623162634" width="2" height="2" fill="#fd79a8" opacity="0.2"/><rect x="512" y="41.45574155277978" width="3" height="2" fill="#a29bfe" opacity="0.3"/><rect x="512" y="43.492525624996695" width="2" height="2" fill="#fd79a8" opacity="0.2"/><rect x="516" y="39.61590327193111" width="3" height="2" fill="#a29bfe" opacity="0.3"/><rect x="516" y="41.480951665730316" width="2" height="2" fill="#fd79a8" opacity="0.2"/><rect x="520" y="37.724058436791104" width="3" height="2" fill="#a29bfe" opacity="0.3"/><rect x="520" y="39.25086945969443" width="2" height="2" fill="#fd79a8" opacity="0.2"/><rect x="524" y="35.80741693759477" width="3" height="2" fill="#a29bfe" opacity="0.3"/><rect x="524" y="36.891185347012296" width="2" height="2" fill="#fd79a8" opacity="0.2"/><rect x="528" y="33.89354530825867" width="3" height="2" fill="#a29bfe" opacity="0.3"/><rect x="528" y="34.49597248684281" width="2" height="2" fill="#fd79a8" opacity="0.2"/><rect x="532" y="32.0099702444139" width="3" height="2" fill="#a29bfe" opacity="0.3"/><rect x="532" y="32.16072045738962" width="2" height="2" fill="#fd79a8" opacity="0.2"/><rect x="536" y="30.183782694421772" width="3" height="2" fill="#a29bfe" opacity="0.3"/><rect x="536" y="29.97852838775311" width="2" height="2" fill="#fd79a8" opacity="0.2"/><rect x="540" y="28.44124821762454" width="3" height="2" fill="#a29bfe" opacity="0.3"/><rect x="540" y="28.03639338944439" width="2" height="2" fill="#fd79a8" opacity="0.2"/><rect x="544" y="26.80742921394191" width="3" height="2" fill="#a29bfe" opacity="0.3"/><rect x="544" y="26.411742256084608" width="2" height="2" fill="#fd79a8" opacity="0.2"/><rect x="548" y="25.30582445818263" width="3" height="2" fill="#a29bfe" opacity="0.3"/><rect x="548" y="25.169344701477755" width="2" height="2" fill="#fd79a8" opacity="0.2"/><rect x="552" y="23.95803112355108" width="3" height="2" fill="#a29bfe" opacity="0.3"/><rect x="552" y="24.358731195513776" width="2" height="2" fill="#fd79a8" opacity="0.2"/><rect x="556" y="22.78343415537344" width="3" height="2" fill="#a29bfe" opacity="0.3"/><rect x="556" y="24.012218340636608" width="2" height="2" fill="#fd79a8" opacity="0.2"/><rect x="560" y="21.79892746269593" width="3" height="2" fill="#a29bfe" opacity="0.3"/><rect x="560" y="24.143620510885658" width="2" height="2" fill="#fd79a8" opacity="0.2"/><rect x="564" y="21.018670937781266" width="3" height="2" fill="#a29bfe" opacity="0.3"/><rect x="564" y="24.74769911639664" width="2" height="2" fill="#fd79a8" opacity="0.2"/><rect x="568" y="20.453886798225525" width="3" height="2" fill="#a29bfe" opacity="0.3"/><rect x="568" y="25.800371449448086" width="2" height="2" fill="#fd79a8" opacity="0.2"/><rect x="572" y="20.11269818085174" width="3" height="2" fill="#a29bfe" opacity="0.3"/><rect x="572" y="27.259670786020877" width="2" height="2" fill="#fd79a8" opacity="0.2"/><rect x="576" y="20.000012308840017" width="3" height="2" fill="#a29bfe" opacity="0.3"/><rect x="576" y="29.06741946665122" width="2" height="2" fill="#fd79a8" opacity="0.2"/><rect x="580" y="20.11744991246987" width="3" height="2" fill="#a29bfe" opacity="0.3"/><rect x="580" y="31.15154825612322" width="2" height="2" fill="#fd79a8" opacity="0.2"/><rect x="584" y="20.463321918597003" width="3" height="2" fill="#a29bfe" opacity="0.3"/><rect x="584" y="33.42896951644939" width="2" height="2" fill="#fd79a8" opacity="0.2"/><rect x="588" y="21.032653744133384" width="3" height="2" fill="#a29bfe" opacity="0.3"/><rect x="588" y="35.80888964879882" width="2" height="2" fill="#fd79a8" opacity="0.2"/><rect x="592" y="21.81725684412416" width="3" height="2" fill="#a29bfe" opacity="0.3"/><rect x="592" y="38.19642874776706" width="2" height="2" fill="#fd79a8" opacity="0.2"/><rect x="596" y="22.80584648536494" width="3" height="2" fill="#a29bfe" opacity="0.3"/><rect x="596" y="40.496403163793545" width="2" height="2" fill="#fd79a8" opacity="0.2"/><rect x="600" y="23.98420405165318" width="3" height="2" fill="#a29bfe" opacity="0.3"/><rect x="600" y="42.617120174900286" width="2" height="2" fill="#fd79a8" opacity="0.2"/><rect x="604" y="25.33538154628183" width="3" height="2" fill="#a29bfe" opacity="0.3"/><rect x="604" y="44.47403348616401" width="2" height="2" fill="#fd79a8" opacity="0.2"/><rect x="608" y="26.839945350470963" width="3" height="2" fill="#a29bfe" opacity="0.3"/><rect x="608" y="45.993113823693406" width="2" height="2" fill="#fd79a8" opacity="0.2"/><rect x="612" y="28.47625573182664" width="3" height="2" fill="#a29bfe" opacity="0.3"/><rect x="612" y="47.11380024816634" width="2" height="2" fill="#fd79a8" opacity="0.2"/><rect x="616" y="30.22077808273196" width="3" height="2" fill="#a29bfe" opacity="0.3"/><rect x="616" y="47.79141452836967" width="2" height="2" fill="#fd79a8" opacity="0.2"/><rect x="620" y="32.04842141221401" width="3" height="2" fill="#a29bfe" opacity="0.3"/><rect x="620" y="47.9989423212872" width="2" height="2" fill="#fd79a8" opacity="0.2"/><rect x="624" y="33.932899222849784" width="3" height="2" fill="#a29bfe" opacity="0.3"/><rect x="624" y="47.7281101487071" width="2" height="2" fill="#fd79a8" opacity="0.2"/><rect x="628" y="35.84710758231604" width="3" height="2" fill="#a29bfe" opacity="0.3"/><rect x="628" y="46.9897152346898" width="2" height="2" fill="#fd79a8" opacity="0.2"/><rect x="632" y="37.7635149518838" width="3" height="2" fill="#a29bfe" opacity="0.3"/><rect x="632" y="45.813195054317305" width="2" height="2" fill="#fd79a8" opacity="0.2"/><rect x="636" y="39.6545581650592" width="3" height="2" fill="#a29bfe" opacity="0.3"/><rect x="636" y="44.24545375445693" width="2" height="2" fill="#fd79a8" opacity="0.2"/><rect x="640" y="41.49303886111833" width="3" height="2" fill="#a29bfe" opacity="0.3"/><rect x="640" y="42.348992233440285" width="2" height="2" fill="#fd79a8" opacity="0.2"/><rect x="644" y="43.25251467173912" width="3" height="2" fill="#a29bfe" opacity="0.3"/><rect x="644" y="40.199416427479946" width="2" height="2" fill="#fd79a8" opacity="0.2"/><rect x="648" y="44.90767953440056" width="3" height="2" fill="#a29bfe" opacity="0.3"/><rect x="648" y="37.88242314058092" width="2" height="2" fill="#fd79a8" opacity="0.2"/><rect x="652" y="46.43472766260416" width="3" height="2" fill="#a29bfe" opacity="0.3"/><rect x="652" y="35.49038358339658" width="2" height="2" fill="#fd79a8" opacity="0.2"/><rect x="656" y="47.81169593803273" width="3" height="2" fill="#a29bfe" opacity="0.3"/><rect x="656" y="33.118660824554624" width="2" height="2" fill="#fd79a8" opacity="0.2"/><rect x="660" y="49.018779800113684" width="3" height="2" fill="#a29bfe" opacity="0.3"/><rect x="660" y="30.861807966046186" width="2" height="2" fill="#fd79a8" opacity="0.2"/><rect x="664" y="50.03861808963272" width="3" height="2" fill="#a29bfe" opacity="0.3"/><rect x="664" y="28.809798609428817" width="2" height="2" fill="#fd79a8" opacity="0.2"/><rect x="668" y="50.85654274956968" width="3" height="2" fill="#a29bfe" opacity="0.3"/><rect x="668" y="27.044439892261003" width="2" height="2" fill="#fd79a8" opacity="0.2"/><rect x="672" y="51.46078979177712" width="3" height="2" fill="#a29bfe" opacity="0.3"/><rect x="672" y="25.636111095684527" width="2" height="2" fill="#fd79a8" opacity="0.2"/><rect x="676" y="51.84266849522555" width="3" height="2" fill="#a29bfe" opacity="0.3"/><rect x="676" y="24.64095784458045" width="2" height="2" fill="#fd79a8" opacity="0.2"/><rect x="680" y="51.996686402282705" width="3" height="2" fill="#a29bfe" opacity="0.3"/><rect x="680" y="24.09865375868261" width="2" height="2" fill="#fd79a8" opacity="0.2"/><rect x="684" y="51.92062831523921" width="3" height="2" fill="#a29bfe" opacity="0.3"/><rect x="684" y="24.030818790556225" width="2" height="2" fill="#fd79a8" opacity="0.2"/><rect x="688" y="51.61558815689545" width="3" height="2" fill="#a29bfe" opacity="0.3"/><rect x="688" y="24.44015730631487" width="2" height="2" fill="#fd79a8" opacity="0.2"/><rect x="692" y="51.08595323696712" width="3" height="2" fill="#a29bfe" opacity="0.3"/><rect x="692" y="25.310350271077663" width="2" height="2" fill="#fd79a8" opacity="0.2"/><rect x="696" y="50.339341150601626" width="3" height="2" fill="#a29bfe" opacity="0.3"/><rect x="696" y="26.606705837392198" width="2" height="2" fill="#fd79a8" opacity="0.2"/><rect x="700" y="49.386490216576895" width="3" height="2" fill="#a29bfe" opacity="0.3"/><rect x="700" y="28.277542399716005" width="2" height="2" fill="#fd79a8" opacity="0.2"/><rect x="704" y="48.24110503098008" width="3" height="2" fill="#a29bfe" opacity="0.3"/><rect x="704" y="30.25624897693902" width="2" height="2" fill="#fd79a8" opacity="0.2"/><rect x="708" y="46.91965935772553" width="3" height="2" fill="#a29bfe" opacity="0.3"/><rect x="708" y="32.46394078199691" width="2" height="2" fill="#fd79a8" opacity="0.2"/><rect x="712" y="45.44115919088469" width="3" height="2" fill="#a29bfe" opacity="0.3"/><rect x="712" y="34.812604109396524" width="2" height="2" fill="#fd79a8" opacity="0.2"/><rect x="716" y="43.82686939663732" width="3" height="2" fill="#a29bfe" opacity="0.3"/><rect x="716" y="37.20860516391009" width="2" height="2" fill="#fd79a8" opacity="0.2"/><rect x="720" y="42.100007866479096" width="3" height="2" fill="#a29bfe" opacity="0.3"/><rect x="720" y="39.556422944512626" width="2" height="2" fill="#fd79a8" opacity="0.2"/><rect x="724" y="40.28541158059656" width="3" height="2" fill="#a29bfe" opacity="0.3"/><rect x="724" y="41.76245736525911" width="2" height="2" fill="#fd79a8" opacity="0.2"/><rect x="728" y="38.40917938432976" width="3" height="2" fill="#a29bfe" opacity="0.3"/><rect x="728" y="43.73876079533841" width="2" height="2" fill="#fd79a8" opacity="0.2"/><rect x="732" y="36.49829661557082" width="3" height="2" fill="#a29bfe" opacity="0.3"/><rect x="732" y="45.40654425357951" width="2" height="2" fill="#fd79a8" opacity="0.2"/><rect x="736" y="34.580246981981226" width="3" height="2" fill="#a29bfe" opacity="0.3"/><rect x="736" y="46.699318476497325" width="2" height="2" fill="#fd79a8" opacity="0.2"/><rect x="740" y="32.68261727029186" width="3" height="2" fill="#a29bfe" opacity="0.3"/><rect x="740" y="47.565544635409054" width="2" height="2" fill="#fd79a8" opacity="0.2"/><rect x="744" y="30.83270057304535" width="3" height="2" fill="#a29bfe" opacity="0.3"/><rect x="744" y="47.970689026893666" width="2" height="2" fill="#fd79a8" opacity="0.2"/><rect x="748" y="29.05710373946157" width="3" height="2" fill="#a29bfe" opacity="0.3"/><rect x="748" y="47.89859982256969" width="2" height="2" fill="#fd79a8" opacity="0.2"/><rect x="752" y="27.381364696354463" width="3" height="2" fill="#a29bfe" opacity="0.3"/><rect x="752" y="47.3521509915229" width="2" height="2" fill="#fd79a8" opacity="0.2"/><rect x="756" y="25.82958514306984" width="3" height="2" fill="#a29bfe" opacity="0.3"/><rect x="756" y="46.3531277242281" width="2" height="2" fill="#fd79a8" opacity="0.2"/><rect x="760" y="24.42408390329208" width="3" height="2" fill="#a29bfe" opacity="0.3"/><rect x="760" y="44.941357925752186" width="2" height="2" fill="#fd79a8" opacity="0.2"/><rect x="764" y="23.185075919467394" width="3" height="2" fill="#a29bfe" opacity="0.3"/><rect x="764" y="43.17312440286306" width="2" height="2" fill="#fd79a8" opacity="0.2"/><rect x="768" y="22.13038150677901" width="3" height="2" fill="#a29bfe" opacity="0.3"/><rect x="768" y="41.1189210461348" width="2" height="2" fill="#fd79a8" opacity="0.2"/><rect x="772" y="21.275170048396035" width="3" height="2" fill="#a29bfe" opacity="0.3"/><rect x="772" y="38.8606424609867" width="2" height="2" fill="#fd79a8" opacity="0.2"/><rect x="776" y="20.631741818356844" width="3" height="2" fill="#a29bfe" opacity="0.3"/><rect x="776" y="36.488319088198296" width="2" height="2" fill="#fd79a8" opacity="0.2"/><rect x="780" y="20.20935107006962" width="3" height="2" fill="#a29bfe" opacity="0.3"/><rect x="780" y="34.096527974343495" width="2" height="2" fill="#fd79a8" opacity="0.2"/><rect x="784" y="20.014072934900177" width="3" height="2" fill="#a29bfe" opacity="0.3"/><rect x="784" y="31.780622283398205" width="2" height="2" fill="#fd79a8" opacity="0.2"/><rect x="788" y="20.048716045208067" width="3" height="2" fill="#a29bfe" opacity="0.3"/><rect x="788" y="29.632929866997486" width="2" height="2" fill="#fd79a8" opacity="0.2"/><rect x="792" y="20.312782138550535" width="3" height="2" fill="#a29bfe" opacity="0.3"/><rect x="792" y="27.739072444347954" width="2" height="2" fill="#fd79a8" opacity="0.2"/><rect x="796" y="20.802473224055845" width="3" height="2" fill="#a29bfe" opacity="0.3"/><rect x="796" y="26.17455213447783" width="2" height="2" fill="#fd79a8" opacity="0.2"/><rect x="96" y="32" width="8" height="8" fill="#fdcb6e" opacity="0.6"/><rect x="120" y="36" width="4" height="4" fill="#74b9ff" opacity="0.4"/><rect x="114.14213562373095" y="44.48528137423857" width="4" height="4" fill="#74b9ff" opacity="0.4"/><rect x="100" y="48" width="4" height="4" fill="#74b9ff" opacity="0.4"/><rect x="85.85786437626905" y="44.48528137423857" width="4" height="4" fill="#74b9ff" opacity="0.4"/><rect x="80" y="36" width="4" height="4" fill="#74b9ff" opacity="0.4"/><rect x="85.85786437626905" y="27.514718625761432" width="4" height="4" fill="#74b9ff" opacity="0.4"/><rect x="100" y="24" width="4" height="4" fill="#74b9ff" opacity="0.4"/><rect x="114.14213562373095" y="27.51471862576143" width="4" height="4" fill="#74b9ff" opacity="0.4"/><rect x="296" y="32" width="8" height="8" fill="#fdcb6e" opacity="0.6"/><rect x="320" y="36" width="4" height="4" fill="#74b9ff" opacity="0.4"/><rect x="314.14213562373095" y="44.48528137423857" width="4" height="4" fill="#74b9ff" opacity="0.4"/><rect x="300" y="48" width="4" height="4" fill="#74b9ff" opacity="0.4"/><rect x="285.85786437626905" y="44.48528137423857" width="4" height="4" fill="#74b9ff" opacity="0.4"/><rect x="280" y="36" width="4" height="4" fill="#74b9ff" opacity="0.4"/><rect x="285.85786437626905" y="27.514718625761432" width="4" height="4" fill="#74b9ff" opacity="0.4"/><rect x="300" y="24" width="4" height="4" fill="#74b9ff" opacity="0.4"/><rect x="314.14213562373095" y="27.51471862576143" width="4" height="4" fill="#74b9ff" opacity="0.4"/><rect x="496" y="32" width="8" height="8" fill="#fdcb6e" opacity="0.6"/><rect x="520" y="36" width="4" height="4" fill="#74b9ff" opacity="0.4"/><rect x="514.142135623731" y="44.48528137423857" width="4" height="4" fill="#74b9ff" opacity="0.4"/><rect x="500" y="48" width="4" height="4" fill="#74b9ff" opacity="0.4"/><rect x="485.85786437626905" y="44.48528137423857" width="4" height="4" fill="#74b9ff" opacity="0.4"/><rect x="480" y="36" width="4" height="4" fill="#74b9ff" opacity="0.4"/><rect x="485.85786437626905" y="27.514718625761432" width="4" height="4" fill="#74b9ff" opacity="0.4"/><rect x="500" y="24" width="4" height="4" fill="#74b9ff" opacity="0.4"/><rect x="514.142135623731" y="27.51471862576143" width="4" height="4" fill="#74b9ff" opacity="0.4"/><rect x="696" y="32" width="8" height="8" fill="#fdcb6e" opacity="0.6"/><rect x="720" y="36" width="4" height="4" fill="#74b9ff" opacity="0.4"/><rect x="714.142135623731" y="44.48528137423857" width="4" height="4" fill="#74b9ff" opacity="0.4"/><rect x="700" y="48" width="4" height="4" fill="#74b9ff" opacity="0.4"/><rect x="685.857864376269" y="44.48528137423857" width="4" height="4" fill="#74b9ff" opacity="0.4"/><rect x="680" y="36" width="4" height="4" fill="#74b9ff" opacity="0.4"/><rect x="685.857864376269" y="27.514718625761432" width="4" height="4" fill="#74b9ff" opacity="0.4"/><rect x="700" y="24" width="4" height="4" fill="#74b9ff" opacity="0.4"/><rect x="714.142135623731" y="27.51471862576143" width="4" height="4" fill="#74b9ff" opacity="0.4"/>
</svg>